<svg width="29" height="29" viewBox="0 0 29 29" fill="none" xmlns="http://www.w3.org/2000/svg">
<path fill-rule="evenodd" clip-rule="evenodd" d="M14.6645 0.333733C18.4952 0.333733 22.0952 1.82307 24.7992 4.5284C30.3885 10.1177 30.3885 19.2111 24.7992 24.8004C22.0592 27.5417 18.3698 28.9924 14.6325 28.9924C12.5952 28.9924 10.5445 28.5617 8.62584 27.6737C8.0605 27.4471 7.53117 27.2337 7.15117 27.2337C6.71384 27.2364 6.12584 27.4391 5.55784 27.6351C4.3925 28.0351 2.94184 28.5337 1.8685 27.4644C0.799168 26.3937 1.2925 24.9471 1.68984 23.7831C1.88584 23.2097 2.08717 22.6177 2.08717 22.1697C2.08717 21.8017 1.90983 21.3324 1.63783 20.6564C-0.859499 15.2631 0.295168 8.76307 4.53117 4.52973C7.23517 1.8244 10.8338 0.333733 14.6645 0.333733ZM14.6658 2.33373C11.3685 2.33373 8.27117 3.6164 5.9445 5.9444C2.29917 9.58707 1.30717 15.1804 3.47384 19.8644C3.78584 20.6364 4.08717 21.3884 4.08717 22.1697C4.08717 22.9497 3.81917 23.7351 3.58317 24.4284C3.3885 24.9991 3.09384 25.8604 3.28317 26.0497C3.4685 26.2417 4.33517 25.9391 4.90717 25.7431C5.59384 25.5084 6.3725 25.2391 7.1445 25.2337C7.91784 25.2337 8.64717 25.5271 9.41917 25.8377C14.1485 28.0244 19.7418 27.0297 23.3858 23.3871C28.1938 18.5764 28.1938 10.7511 23.3858 5.94307C21.0578 3.61507 17.9618 2.33373 14.6658 2.33373ZM19.9284 13.884C20.6644 13.884 21.2617 14.48 21.2617 15.2173C21.2617 15.9547 20.6644 16.5507 19.9284 16.5507C19.1924 16.5507 18.5897 15.9547 18.5897 15.2173C18.5897 14.48 19.1804 13.884 19.9164 13.884H19.9284ZM14.5833 13.884C15.3193 13.884 15.9166 14.48 15.9166 15.2173C15.9166 15.9547 15.3193 16.5507 14.5833 16.5507C13.8473 16.5507 13.2446 15.9547 13.2446 15.2173C13.2446 14.48 13.834 13.884 14.5713 13.884H14.5833ZM9.2377 13.884C9.9737 13.884 10.571 14.48 10.571 15.2173C10.571 15.9547 9.9737 16.5507 9.2377 16.5507C8.5017 16.5507 7.89904 15.9547 7.89904 15.2173C7.89904 14.48 8.4897 13.884 9.2257 13.884H9.2377Z" fill="#2C2C2C"/>
</svg>
